<?xml version="1.0" encoding="utf-8"?>
<!-- Generator: Adobe Illustrator 16.0.0, SVG Export Plug-In . SVG Version: 6.00 Build 0)  -->
<!DOCTYPE svg PUBLIC "-//W3C//DTD SVG 1.1//EN" "http://www.w3.org/Graphics/SVG/1.1/DTD/svg11.dtd">
<svg version="1.1" id="Layer_1" xmlns="http://www.w3.org/2000/svg" xmlns:xlink="http://www.w3.org/1999/xlink" x="0px" y="0px"
	 width="200px" height="200px" viewBox="0 0 200 200" enable-background="new 0 0 200 200" xml:space="preserve">
<path fill-rule="evenodd" clip-rule="evenodd" d="M141.757-13.87c-9.386,0.004-18.079-2.861-26.531-6.551
	c-13.953-6.092-26.162-14.908-37.671-24.724C57.149-62.55,40.012-82.583,28.871-107.225c-4.417-9.771-7.155-19.985-5.83-30.937
	c0.78-6.441,3.279-12.092,7.512-16.895c1.38-1.564,3.397-2.73,5.336-3.609c6.45-2.925,12.987-5.656,19.506-8.426
	c6.045-2.568,11.129-1.054,14.526,4.553c5.836,9.631,11.53,19.347,17.292,29.022c2.29,3.845,2.363,7.721,0.238,11.653
	c-3.153,5.832-6.221,11.711-9.491,17.478c-1.009,1.78-0.707,2.792,0.677,4.16c10.204,10.09,20.36,20.227,30.432,30.448
	c1.502,1.522,2.594,1.63,4.399,0.608c5.455-3.082,11.092-5.842,16.518-8.974c4.503-2.601,8.71-2.436,13.092,0.195
	c9.422,5.656,18.915,11.193,28.355,16.813c5.359,3.19,7.12,8.529,4.692,14.301c-2.817,6.694-5.813,13.318-8.562,20.041
	c-2.226,5.44-6.696,8.397-11.758,10.258c-4.445,1.635-9.251,2.297-13.897,3.387C141.859-13.389,141.808-13.629,141.757-13.87z
	 M142.151-19.203c2.14-0.246,4.639-0.266,6.994-0.856c6.66-1.668,12.28-4.52,14.713-11.816c1.859-5.58,4.562-10.879,6.892-16.302
	c1.784-4.153,1.115-6.366-2.753-8.668c-9.287-5.522-18.625-10.963-27.879-16.541c-2.461-1.484-4.636-1.51-7.136-0.127
	c-6.117,3.384-12.318,6.621-18.498,9.892c-3.598,1.902-5.071,1.688-7.973-1.204C95.645-75.665,84.791-86.516,73.946-97.375
	c-3.189-3.194-3.37-4.562-1.199-8.662c3.06-5.778,6.007-11.622,9.277-17.28c1.767-3.058,1.69-5.623-0.128-8.606
	c-5.482-8.994-10.769-18.107-16.144-27.166c-2.33-3.927-4.426-4.605-8.603-2.798c-6.084,2.63-12.081,5.494-18.273,7.838
	c-3.645,1.378-6.017,3.869-7.439,7.113c-1.401,3.196-2.504,6.675-2.903,10.127c-1.15,9.96,1.668,19.271,5.705,28.219
	c6.825,15.131,16.443,28.395,27.567,40.628C77.087-51.156,94.303-36.81,114.71-26.584C123.229-22.313,132.217-19.548,142.151-19.203
	z"/>
<path fill-rule="evenodd" clip-rule="evenodd" stroke="#FFFFFF" stroke-width="2" stroke-miterlimit="10" d="M-156.559,21.765
	c3.319,0,6.638,0,9.957,0c0.367,0.094,0.729,0.246,1.103,0.272c13.726,1.006,26.382,5.262,37.781,12.945
	c18.724,12.623,30.288,30.069,34.479,52.308c0.569,3.025,0.88,6.1,1.312,9.151c0,3.319,0,6.638,0,9.957
	c-0.098,0.425-0.252,0.847-0.281,1.274c-0.918,12.268-4.438,23.757-10.825,34.251c-12.544,20.602-30.687,33.294-54.425,37.841
	c-3.021,0.576-6.097,0.877-9.144,1.309c-3.318,0-6.638,0-9.957,0c-0.368-0.095-0.73-0.246-1.102-0.272
	c-13.729-1.005-26.385-5.263-37.781-12.944c-18.726-12.624-30.29-30.068-34.48-52.309c-0.568-3.023-0.881-6.1-1.313-9.149
	c0-3.318,0-6.638,0-9.957c0.097-0.424,0.251-0.846,0.284-1.275c0.917-12.268,4.435-23.755,10.825-34.25
	c12.542-20.6,30.685-33.295,54.424-37.841C-162.681,22.496-159.608,22.195-156.559,21.765z M-151.655,29.732
	c-39.479,0.063-71.64,32.273-71.613,71.72c0.027,39.466,32.217,71.646,71.678,71.654c39.508,0.006,71.797-32.331,71.696-71.804
	C-79.994,61.817-112.228,29.669-151.655,29.732z"/>
<path fill-rule="evenodd" clip-rule="evenodd" stroke="#FFFFFF" stroke-width="2" stroke-miterlimit="10" d="M-114.317,101.565
	c0.028,2.942-1.417,5.179-3.475,7.068c-0.931,0.856-1.975,1.608-3.034,2.301c-13.401,8.79-26.804,17.574-40.238,26.312
	c-1.466,0.956-3.048,1.848-4.702,2.376c-4.975,1.591-8.604-0.765-9.409-5.983c-0.201-1.306-0.29-2.642-0.292-3.963
	c-0.018-18.857-0.016-37.715,0-56.573c0-1.212,0.094-2.433,0.256-3.635c0.811-5.985,5.502-8.459,10.896-5.75
	c1.084,0.545,2.144,1.154,3.157,1.821c13.486,8.859,26.979,17.709,40.419,26.638c1.676,1.113,3.306,2.484,4.502,4.077
	c1.105,1.472,1.598,3.401,2.359,5.129C-114.022,101.444-114.172,101.506-114.317,101.565z M-167.509,101.294
	c0,8.406-0.026,16.814,0.014,25.225c0.015,3.072,1.839,4.042,4.482,2.476c0.284-0.168,0.562-0.354,0.839-0.534
	c11.98-7.834,23.963-15.671,35.938-23.511c0.509-0.331,1.024-0.67,1.468-1.078c1.56-1.432,1.554-3.341-0.016-4.766
	c-0.486-0.444-1.051-0.808-1.604-1.171c-11.908-7.845-23.819-15.688-35.734-23.522c-0.598-0.394-1.197-0.818-1.855-1.087
	c-1.669-0.684-3.003,0.007-3.392,1.764c-0.153,0.692-0.136,1.428-0.138,2.144C-167.515,85.253-167.512,93.273-167.509,101.294z"/>
<g>
	<path fill-rule="evenodd" clip-rule="evenodd" d="M169.632,185.676c-0.092-0.031-0.182-0.07-0.276-0.091
		c-0.557-0.12-1.037-0.377-1.446-0.771c-0.175-0.171-0.347-0.346-0.52-0.519c-8.699-8.7-17.401-17.396-26.094-26.104
		c-0.29-0.294-0.578-0.396-0.984-0.396c-26.284,0.008-52.568,0.002-78.854,0.014c-2.732,0.002-5.371-0.427-7.855-1.563
		c-6.143-2.807-9.894-7.541-11.226-14.171c-0.243-1.201-0.303-2.425-0.303-3.651c-0.002-10.019,0-20.036,0-30.057
		c0-0.191,0-0.386,0-0.609c-0.251,0.034-0.35,0.216-0.478,0.342c-2.932,2.929-5.862,5.858-8.792,8.788
		c-1.638,1.64-3.279,3.276-4.914,4.918c-0.714,0.718-1.562,1.037-2.571,0.928c-1.351-0.146-2.48-1.316-2.571-2.668
		c-0.015-0.213-0.01-0.426-0.01-0.637c-0.001-5.271-0.001-10.541-0.001-15.812c0-0.192,0-0.387,0-0.614
		c-0.159-0.017-0.283-0.044-0.406-0.045c-0.539-0.005-1.077-0.001-1.616-0.004c-6.979-0.019-12.924-4.983-14.18-11.847
		c-0.099-0.545-0.153-1.098-0.232-1.646c-0.017-0.111-0.059-0.218-0.09-0.328c0-17.266,0-34.529,0-51.797
		c0.073-0.447,0.148-0.896,0.219-1.345c0.721-4.621,3.08-8.152,7.094-10.548c2.28-1.361,4.779-1.943,7.433-1.942
		c20.104,0.007,40.208,0.002,60.312,0.002c7.166,0,14.328-0.004,21.491,0.007c0.814,0.001,1.64,0.023,2.44,0.151
		c4.501,0.727,7.952,3.053,10.319,6.949c1.362,2.24,2,4.698,2.006,7.317c0.005,3.328,0.001,6.657,0.002,9.988c0,0.188,0,0.377,0,0.6
		c0.296,0,0.521,0,0.748,0c19.548,0,39.098,0,58.647,0.002c1.145,0,2.285,0.089,3.41,0.302c4.726,0.897,8.614,3.22,11.594,6.994
		c2.299,2.909,3.686,6.208,3.963,9.937c0.01,0.093,0.05,0.183,0.078,0.276c0,24.771,0,49.542,0,74.315
		c-0.03,0.157-0.074,0.311-0.092,0.469c-0.049,0.405-0.062,0.813-0.135,1.214c-0.862,4.658-3.106,8.519-6.778,11.509
		c-3.374,2.75-7.26,4.183-11.623,4.262c-1.271,0.021-2.545,0.005-3.817,0.008c-0.176,0-0.35,0-0.577,0c0,0.265,0,0.473,0,0.683
		c0,7.927,0,15.856,0,23.784c0,0.163,0.003,0.327-0.001,0.49c-0.046,1.354-0.988,2.502-2.309,2.814
		c-0.11,0.027-0.215,0.067-0.323,0.102C170.089,185.676,169.86,185.676,169.632,185.676z M166.889,175.391
		c0.036-0.014,0.074-0.027,0.109-0.042c0-0.19,0-0.381,0-0.571c0-6.546,0.029-13.088-0.016-19.634
		c-0.014-1.939,1.421-3.343,3.258-3.285c2.219,0.074,4.439,0.034,6.657,0.009c0.781-0.009,1.568-0.064,2.339-0.196
		c6.201-1.05,10.84-6.545,10.842-12.85c0.006-23.776,0.004-47.552-0.002-71.328c0-0.537-0.025-1.08-0.104-1.61
		c-0.683-4.484-3.027-7.813-7.018-9.961c-1.953-1.048-4.063-1.458-6.273-1.457c-20.79,0.011-41.58,0.011-62.369,0.013
		c-17.593,0.002-35.186-0.002-52.78,0.008c-0.827,0.001-1.666,0.044-2.483,0.172c-6.308,0.986-11.012,6.501-11.014,12.891
		c-0.005,23.63-0.005,47.258-0.002,70.889c0,0.537,0.017,1.075,0.071,1.61c0.354,3.513,1.897,6.413,4.565,8.699
		c2.48,2.123,5.386,3.132,8.644,3.129c26.682,0,53.363,0,80.043,0c0.277,0,0.555,0,0.831,0.003c0.754,0.008,1.399,0.277,1.952,0.784
		c0.182,0.164,0.351,0.342,0.524,0.513c7.27,7.271,14.538,14.54,21.811,21.81C166.608,175.121,166.749,175.254,166.889,175.391z
		 M111.556,48.513c0.01-0.205,0.023-0.349,0.023-0.492c0-3.377,0.01-6.755-0.002-10.133c-0.016-3.691-2.387-6.91-5.899-8.042
		c-0.941-0.304-1.91-0.404-2.894-0.404c-9.203,0-18.406,0-27.608,0c-17.948,0-35.896,0-53.845,0.004
		c-0.603,0-1.212,0.003-1.806,0.091c-4.494,0.667-7.272,4.555-7.267,8.369c0.023,16.887,0.008,33.776,0.016,50.663
		c0,0.47,0.036,0.947,0.107,1.412c0.572,3.759,3.932,6.799,7.732,7.006c0.423,0.022,0.849,0.033,1.272,0.034
		c1.354,0.005,2.708-0.003,4.063,0.006c0.341,0.003,0.691,0.018,1.018,0.102c1.382,0.351,2.207,1.648,2.201,2.889
		c-0.02,3.982-0.007,7.962-0.007,11.944c0,0.172,0,0.346,0,0.52c0.032,0.013,0.066,0.024,0.099,0.039
		c0.135-0.129,0.271-0.258,0.404-0.389c4.167-4.165,8.328-8.335,12.503-12.491c0.305-0.304,0.414-0.604,0.414-1.025
		c-0.009-10.312-0.014-20.623,0.004-30.935c0.001-1.056,0.075-2.126,0.258-3.164c1.097-6.22,4.47-10.828,10.001-13.836
		c2.79-1.517,5.813-2.17,8.987-2.168c16.496,0.005,32.993,0.002,49.489,0.001C111.045,48.513,111.273,48.513,111.556,48.513z"/>
</g>
</svg>
