<?xml version="1.0" encoding="utf-8"?>
<!-- Generator: Adobe Illustrator 16.0.0, SVG Export Plug-In . SVG Version: 6.00 Build 0)  -->
<!DOCTYPE svg PUBLIC "-//W3C//DTD SVG 1.1//EN" "http://www.w3.org/Graphics/SVG/1.1/DTD/svg11.dtd">
<svg version="1.1" id="Layer_1" xmlns="http://www.w3.org/2000/svg" xmlns:xlink="http://www.w3.org/1999/xlink" x="0px" y="0px"
	 width="547.161px" height="549px" viewBox="0 0 547.161 549" enable-background="new 0 0 547.161 549" xml:space="preserve">
<g>
	<polyline fill="none" stroke="#020202" stroke-miterlimit="10" points="294.788,243.277 276.387,406.339 204.319,306.378 
		203.405,305.082 	"/>
	<polygon fill="none" stroke="#020202" stroke-miterlimit="10" points="296.776,243.277 357.86,350.826 281.133,364.277 	"/>
	<polygon fill="none" stroke="#020202" stroke-miterlimit="10" points="438.815,272.863 360.543,355.723 298.065,241.973 	"/>
	<polygon fill="none" stroke="#020202" stroke-miterlimit="10" points="439.77,200.516 293.741,241.577 440.389,272.527 	"/>
	<polygon fill="none" stroke="#020202" stroke-miterlimit="10" points="439.77,200.516 337.536,160.428 296.776,239.34 	"/>
	<polygon fill="none" stroke="#020202" stroke-miterlimit="10" points="392.11,120.312 334.901,158.132 438.815,199.233 	"/>
	<polygon fill="none" stroke="#020202" stroke-miterlimit="10" points="346.5,69.899 337.536,153.845 392.11,120.312 	"/>
	<polygon fill="none" stroke="#020202" stroke-miterlimit="10" points="344.116,71.659 223.776,172.935 296.12,239.34 
		334.901,158.132 	"/>
	<polygon fill="none" stroke="#020202" stroke-miterlimit="10" points="237.59,36.153 221.803,170.947 345.18,69.677 	"/>
	<polygon fill="none" stroke="#020202" stroke-miterlimit="10" points="128.42,39.272 105.412,149.09 156.716,239.836 
		219.164,176.058 	"/>
	<polygon fill="none" stroke="#020202" stroke-miterlimit="10" points="35.722,98.454 104.76,147.099 126.458,39.272 	"/>
	<polygon fill="none" stroke="#020202" stroke-miterlimit="10" points="4.148,155.654 104.105,147.775 35.722,98.454 	"/>
	<polygon fill="none" stroke="#020202" stroke-miterlimit="10" points="8.46,221.428 104.105,148.421 3,158.187 	"/>
	<polygon fill="none" stroke="#020202" stroke-miterlimit="10" points="8.812,222.333 103.45,147.921 63.328,251.169 	"/>
	<polygon fill="none" stroke="#020202" stroke-miterlimit="10" points="155.384,238.026 63.328,251.169 104.76,146.611 	"/>
	<polygon fill="none" stroke="#020202" stroke-miterlimit="10" points="61.778,252.274 110.831,300.107 158.332,238.181 	"/>
	<polygon fill="none" stroke="#020202" stroke-miterlimit="10" points="157.038,241.304 201.711,303.76 111.993,299.495 	"/>
	<polygon fill="none" stroke="#020202" stroke-miterlimit="10" points="222.463,174.229 157.038,239.34 201.711,303.76 
		295.44,239.981 	"/>
	<path fill="#FFFFFF" stroke="#020202" stroke-miterlimit="10" d="M346.5,155.872c0,5.842-4.768,10.588-10.607,10.588
		c-5.848,0-10.586-4.746-10.586-10.588c0-5.851,4.738-10.583,10.586-10.583C341.735,145.289,346.5,150.021,346.5,155.872z"/>
	<path fill="#FFFFFF" stroke="#020202" stroke-miterlimit="10" d="M306.038,239.999c0,5.842-4.738,10.584-10.58,10.584
		c-5.852,0-10.586-4.742-10.586-10.584c0-5.859,4.734-10.605,10.586-10.605C301.299,229.394,306.038,234.14,306.038,239.999z"/>
	<path fill="#FFFFFF" stroke="#020202" stroke-miterlimit="10" d="M165.981,238.026c0,5.828-4.751,10.579-10.597,10.579
		c-5.835,0-10.581-4.751-10.581-10.579c0-5.86,4.746-10.606,10.581-10.606C161.23,227.42,165.981,232.166,165.981,238.026z"/>
	<path fill="#FFFFFF" stroke="#020202" stroke-miterlimit="10" d="M114.68,146.611c0,5.842-4.73,10.606-10.575,10.606
		c-5.857,0-10.588-4.765-10.588-10.606c0-5.837,4.73-10.583,10.588-10.583C109.949,136.028,114.68,140.774,114.68,146.611z"/>
	<g>
		<g>
			<path fill="#5D5D5D" d="M302.776,241.577h-5.633v5.568h-3.404v-5.568h-5.625v-3.178h5.625v-5.569h3.404v5.569h5.633V241.577z"/>
		</g>
	</g>
	<g>
		<g>
			<path fill="#5D5D5D" d="M342.901,157.518h-5.227v5.16h-3.168v-5.16h-5.221v-2.964h5.221v-5.187h3.168v5.187h5.227V157.518z"/>
		</g>
	</g>
	<g>
		<g>
			<path fill="#5D5D5D" d="M162.337,239.981h-5.621v5.573h-3.407v-5.573h-5.64v-3.174h5.64v-5.555h3.407v5.555h5.621V239.981z"/>
		</g>
	</g>
	<g>
		<g>
			<path fill="#5D5D5D" d="M110.92,148.171h-5.133v5.092h-3.107v-5.092h-5.142v-2.896h5.142v-5.092h3.107v5.092h5.133V148.171z"/>
		</g>
	</g>
	<polyline fill="none" stroke="#020202" stroke-miterlimit="10" points="127.491,37.271 235.958,36.153 219.169,174.229 
		126.458,39.272 	"/>
	<path fill="#FFFFFF" stroke="#020202" stroke-miterlimit="10" d="M236.121,170.947c0,9.36-7.585,16.953-16.969,16.953
		c-9.36,0-16.939-7.593-16.939-16.953c0-9.365,7.579-16.952,16.939-16.952C228.536,153.995,236.121,161.582,236.121,170.947z"/>
	<g>
		<g>
			<path fill="#5D5D5D" d="M230.959,173.479h-8.924v8.815h-5.383v-8.815h-8.942v-5.051h8.942v-8.819h5.383v8.819h8.924V173.479z"/>
		</g>
	</g>
</g>
<path d="M39.433,476.31l-0.109-17.501l-8.338,14.048h-5.705l-8.34-13.437v16.89H5.148v-38.392h10.645L28.3,458.379l12.173-20.461
	h10.645l0.112,38.392H39.433z"/>
<path d="M57.479,437.918h12.946v38.392H57.479V437.918z"/>
<path d="M114.526,437.918v38.392h-10.637L89.3,458.875v17.435H76.677v-38.392H87.32l14.594,17.44v-17.44H114.526z"/>
<path d="M120.785,437.918h18.917c4.288,0,8.068,0.781,11.339,2.328c3.272,1.555,5.817,3.776,7.623,6.662
	c1.808,2.891,2.725,6.293,2.725,10.211c0,3.912-0.917,7.317-2.725,10.2c-1.806,2.894-4.351,5.109-7.623,6.662
	c-3.271,1.557-7.051,2.327-11.339,2.327h-18.917V437.918L120.785,437.918z M139.162,466.222c2.784,0,5.005-0.796,6.667-2.38
	c1.653-1.6,2.495-3.84,2.495-6.723c0-2.896-0.842-5.134-2.495-6.718c-1.661-1.606-3.883-2.385-6.667-2.385h-5.431v18.204
	L139.162,466.222L139.162,466.222z"/>
<g>
	<g>
		<path d="M203.617,459.014c1.281,1.624,1.921,3.688,1.921,6.171c0,3.333-1.261,5.891-3.759,7.688
			c-2.508,1.784-6.158,2.682-10.937,2.682h-18.333V437.15h17.226c4.391,0,7.78,0.892,10.179,2.639
			c2.395,1.755,3.596,4.187,3.596,7.299c0,2.012-0.477,3.744-1.407,5.205c-0.933,1.468-2.184,2.583-3.749,3.35
			C200.574,456.262,202.337,457.393,203.617,459.014z M178,441.598v12.287h11.246c2.813,0,4.979-0.52,6.495-1.563
			c1.519-1.043,2.276-2.571,2.276-4.578c0-2.009-0.758-3.545-2.276-4.579c-1.517-1.05-3.683-1.567-6.495-1.567H178z
			 M197.627,469.578c1.586-1.027,2.363-2.636,2.363-4.828c0-4.282-3.125-6.422-9.373-6.422h-12.618v12.783h12.618
			C193.72,471.111,196.065,470.599,197.627,469.578z"/>
		<path d="M238.508,465.956h-20.411l-4.218,9.598h-5.662l17.395-38.404h5.435l17.438,38.404h-5.766L238.508,465.956z
			 M236.588,461.563l-8.283-18.814l-8.291,18.814H236.588z"/>
		<path d="M254.188,437.148h5.482v33.636h20.803v4.77h-26.286V437.148z"/>
		<path d="M311.397,465.956h-20.391l-4.227,9.598h-5.648l17.389-38.404h5.424l17.447,38.404h-5.76L311.397,465.956z
			 M309.491,461.563l-8.291-18.814l-8.279,18.814H309.491z"/>
		<path d="M360.12,437.148v38.404h-4.484l-23.049-28.63v28.63h-5.492v-38.404h4.496l23.047,28.646v-28.646H360.12z"/>
		<path d="M378.415,473.442c-3.098-1.705-5.52-4.042-7.271-7.021c-1.748-2.985-2.631-6.341-2.631-10.066
			c0-3.732,0.883-7.087,2.631-10.066c1.752-2.979,4.184-5.326,7.299-7.022c3.102-1.701,6.574-2.554,10.416-2.554
			c3.006,0,5.746,0.499,8.23,1.512c2.486,1.002,4.604,2.496,6.361,4.477l-3.563,3.452c-2.885-3.035-6.496-4.556-10.809-4.556
			c-2.848,0-5.424,0.644-7.729,1.916c-2.311,1.289-4.105,3.053-5.408,5.298c-1.303,2.249-1.939,4.764-1.939,7.545
			c0,2.777,0.637,5.295,1.939,7.543c1.303,2.25,3.098,4.008,5.408,5.286c2.303,1.286,4.881,1.927,7.729,1.927
			c4.285,0,7.887-1.533,10.809-4.609l3.563,3.453c-1.758,1.976-3.879,3.477-6.383,4.508c-2.508,1.016-5.268,1.532-8.27,1.532
			C384.973,475.995,381.5,475.141,378.415,473.442z"/>
		<path d="M439.161,470.784v4.77h-27.859v-38.404h27.098v4.778H416.79v11.791h19.242v4.66H416.79v12.405H439.161z"/>
	</g>
</g>
<g>
	<g>
		<path d="M12.101,491.516H6.226v-2.131h14.181v2.131h-5.876v15.021h-2.43V491.516z"/>
		<path d="M72.834,489.385v17.15h-2.437v-7.646h-9.853v7.646h-2.451v-17.15h2.451v7.373h9.853v-7.373H72.834z"/>
		<path d="M125.442,504.4v2.135h-12.435v-17.15h12.1v2.131h-9.654v5.268h8.598v2.075h-8.598v5.543L125.442,504.4L125.442,504.4z"/>
		<path d="M175.894,506.535l-3.695-5.271c-0.463,0.025-0.813,0.041-1.076,0.041h-4.245v5.23h-2.446v-17.15h6.691
			c2.213,0,3.962,0.533,5.241,1.595c1.272,1.059,1.896,2.523,1.896,4.377c0,1.321-0.311,2.455-0.97,3.38
			c-0.653,0.932-1.586,1.615-2.792,2.034l4.062,5.766L175.894,506.535L175.894,506.535z M174.594,498.229
			c0.821-0.676,1.228-1.622,1.228-2.874c0-1.234-0.407-2.189-1.228-2.851c-0.819-0.659-2.003-0.99-3.552-0.99h-4.165v7.713h4.165
			C172.591,499.229,173.775,498.89,174.594,498.229z"/>
		<path d="M228.176,502.237h-9.114l-1.875,4.298h-2.521l7.766-17.15h2.414l7.795,17.15h-2.571L228.176,502.237z M227.325,500.281
			l-3.696-8.402l-3.704,8.402H227.325z"/>
		<path d="M282.133,490.979c1.27,1.059,1.908,2.523,1.908,4.377c0,1.859-0.639,3.323-1.908,4.393
			c-1.275,1.063-3.021,1.582-5.234,1.582h-4.25v5.205h-2.447v-17.15h6.698C279.112,489.385,280.858,489.918,282.133,490.979z
			 M280.37,498.213c0.805-0.658,1.217-1.604,1.217-2.856c0-1.234-0.414-2.189-1.217-2.851c-0.824-0.659-2.01-0.99-3.553-0.99h-4.17
			v7.688h4.17C278.36,499.202,279.545,498.873,280.37,498.213z"/>
		<path d="M329.221,500.601v5.936h-2.418v-5.983l-6.805-11.167h2.615l5.492,9.037l5.504-9.037h2.422L329.221,500.601z"/>
	</g>
</g>
</svg>
