<?xml version="1.0" encoding="utf-8"?>
<!-- Generator: Adobe Illustrator 16.0.0, SVG Export Plug-In . SVG Version: 6.00 Build 0)  -->
<!DOCTYPE svg PUBLIC "-//W3C//DTD SVG 1.1//EN" "http://www.w3.org/Graphics/SVG/1.1/DTD/svg11.dtd">
<svg version="1.1" id="Layer_1" xmlns="http://www.w3.org/2000/svg" xmlns:xlink="http://www.w3.org/1999/xlink" x="0px" y="0px"
	 width="841.68px" height="204.042px" viewBox="0 0 841.68 204.042" enable-background="new 0 0 841.68 204.042"
	 xml:space="preserve">
<path d="M102.38,118.278l-0.189-30.137l-14.359,24.189h-9.824L63.645,89.193v29.084H43.336V52.164h18.333l21.539,35.234
	l20.963-35.234h18.332l0.194,66.114H102.38z"/>
<path d="M133.458,52.164h22.295v66.114h-22.295V52.164z"/>
<path d="M231.699,52.164v66.114H213.38l-25.125-30.025v30.025h-21.738V52.164h18.328l25.134,30.035V52.164H231.699z"/>
<path d="M242.478,52.164h32.576c7.384,0,13.894,1.343,19.528,4.01c5.634,2.676,10.018,6.501,13.128,11.471
	c3.114,4.979,4.693,10.838,4.693,17.585c0,6.735-1.579,12.601-4.693,17.565c-3.11,4.983-7.494,8.8-13.128,11.472
	c-5.634,2.681-12.144,4.01-19.528,4.01h-32.576V52.164z M274.127,100.905c4.793,0,8.619-1.371,11.48-4.098
	c2.847-2.755,4.296-6.612,4.296-11.576c0-4.984-1.449-8.842-4.296-11.568c-2.861-2.769-6.687-4.107-11.48-4.107h-9.354v31.35
	H274.127z"/>
<g>
	<g>
		<path d="M385.126,88.493c2.206,2.797,3.309,6.349,3.309,10.626c0,5.741-2.172,10.143-6.474,13.239
			c-4.319,3.072-10.604,4.618-18.835,4.618h-31.571V50.84h29.665c7.563,0,13.399,1.532,17.529,4.54
			c4.125,3.022,6.193,7.212,6.193,12.57c0,3.465-0.821,6.451-2.422,8.964c-1.606,2.529-3.761,4.449-6.456,5.768
			C379.885,83.754,382.921,85.701,385.126,88.493z M341.01,58.5v21.161h19.366c4.845,0,8.573-0.896,11.186-2.691
			c2.616-1.798,3.921-4.428,3.921-7.885c0-3.46-1.305-6.104-3.921-7.886c-2.612-1.808-6.341-2.699-11.186-2.699H341.01z
			 M374.81,106.686c2.731-1.771,4.07-4.54,4.07-8.314c0-7.374-5.38-11.06-16.141-11.06H341.01v22.015h21.729
			C368.082,109.326,372.12,108.444,374.81,106.686z"/>
		<path d="M445.211,100.448h-35.148l-7.263,16.528h-9.75l29.956-66.136h9.359l30.029,66.136h-9.931L445.211,100.448z
			 M441.906,92.881l-14.266-32.402l-14.275,32.402H441.906z"/>
		<path d="M472.214,50.84h9.44v57.922h35.825v8.213h-45.266V50.84z"/>
		<path d="M570.736,100.448h-35.114l-7.28,16.528h-9.728l29.946-66.136h9.339l30.048,66.136h-9.92L570.736,100.448z M567.451,92.881
			l-14.276-32.402l-14.259,32.402H567.451z"/>
		<path d="M654.643,50.84v66.136h-7.725l-39.692-49.304v49.304h-9.459V50.84h7.743l39.691,49.331V50.84H654.643z"/>
		<path d="M686.147,113.339c-5.333-2.935-9.504-6.958-12.522-12.088c-3.007-5.14-4.531-10.918-4.531-17.336
			c0-6.429,1.524-12.205,4.531-17.336c3.019-5.13,7.206-9.173,12.57-12.094c5.343-2.93,11.321-4.397,17.938-4.397
			c5.178,0,9.894,0.858,14.175,2.602c4.283,1.726,7.927,4.301,10.955,7.706l-6.136,5.947c-4.967-5.227-11.186-7.844-18.615-7.844
			c-4.9,0-9.339,1.107-13.307,3.299c-3.979,2.22-7.069,5.256-9.312,9.122c-2.243,3.876-3.342,8.204-3.342,12.994
			c0,4.784,1.099,9.117,3.342,12.989c2.242,3.875,5.333,6.902,9.312,9.103c3.968,2.216,8.406,3.319,13.307,3.319
			c7.383,0,13.584-2.641,18.615-7.937l6.136,5.947c-3.028,3.4-6.682,5.985-10.991,7.762c-4.32,1.748-9.071,2.639-14.24,2.639
			C697.443,117.737,691.463,116.265,686.147,113.339z"/>
		<path d="M790.762,108.763v8.213h-47.979V50.84h46.669v8.227h-37.218v20.307h33.139v8.024h-33.139v21.365H790.762z"/>
	</g>
</g>
<g>
	<g>
		<path d="M55.31,144.464H45.193v-3.669h24.421v3.669h-10.12v25.865H55.31V144.464z"/>
		<path d="M159.901,140.795v29.534h-4.198v-13.168h-16.967v13.168h-4.221v-29.534h4.221v12.697h16.967v-12.697H159.901z"/>
		<path d="M250.498,166.653v3.677h-21.415v-29.534h20.837v3.669h-16.625v9.071h14.807v3.571h-14.807v9.546H250.498z"/>
		<path d="M337.383,170.33l-6.363-9.075c-0.798,0.042-1.402,0.068-1.854,0.068h-7.31v9.007h-4.213v-29.534h11.522
			c3.811,0,6.823,0.919,9.025,2.745c2.192,1.823,3.267,4.347,3.267,7.535c0,2.279-0.535,4.23-1.67,5.823
			c-1.125,1.605-2.731,2.782-4.808,3.502l6.996,9.929H337.383z M335.145,156.027c1.413-1.162,2.114-2.792,2.114-4.951
			c0-2.123-0.701-3.767-2.114-4.905c-1.411-1.135-3.451-1.706-6.118-1.706h-7.17v13.284h7.17
			C331.694,157.749,333.734,157.165,335.145,156.027z"/>
		<path d="M427.419,162.929h-15.696l-3.23,7.4h-4.342l13.372-29.534h4.158l13.425,29.534h-4.429L427.419,162.929z M425.952,159.561
			l-6.367-14.471l-6.377,14.471H425.952z"/>
		<path d="M520.34,143.541c2.188,1.823,3.286,4.347,3.286,7.535c0,3.206-1.099,5.726-3.286,7.566
			c-2.195,1.828-5.204,2.723-9.016,2.723h-7.319v8.965h-4.217v-29.534h11.536C515.136,140.795,518.145,141.714,520.34,143.541z
			 M517.304,155.998c1.385-1.133,2.096-2.763,2.096-4.922c0-2.123-0.711-3.767-2.096-4.905c-1.421-1.135-3.461-1.706-6.118-1.706
			h-7.181v13.236h7.181C513.843,157.701,515.883,157.134,517.304,155.998z"/>
		<path d="M601.431,160.11v10.22h-4.162v-10.303l-11.72-19.231h4.503l9.459,15.563l9.479-15.563h4.171L601.431,160.11z"/>
	</g>
</g>
</svg>
