<?xml version="1.0" encoding="utf-8"?>
<!-- Generator: Adobe Illustrator 16.0.0, SVG Export Plug-In . SVG Version: 6.00 Build 0)  -->
<!DOCTYPE svg PUBLIC "-//W3C//DTD SVG 1.1//EN" "http://www.w3.org/Graphics/SVG/1.1/DTD/svg11.dtd">
<svg version="1.1" id="Layer_1" xmlns="http://www.w3.org/2000/svg" xmlns:xlink="http://www.w3.org/1999/xlink" x="0px" y="0px"
	 width="200px" height="200px" viewBox="0 0 200 200" enable-background="new 0 0 200 200" xml:space="preserve">
<path fill-rule="evenodd" clip-rule="evenodd" d="M141.757-13.87c-9.386,0.004-18.079-2.861-26.531-6.551
	c-13.953-6.092-26.162-14.908-37.671-24.724C57.149-62.55,40.012-82.583,28.871-107.225c-4.417-9.771-7.155-19.985-5.83-30.937
	c0.78-6.441,3.279-12.092,7.512-16.895c1.38-1.564,3.397-2.73,5.336-3.609c6.45-2.925,12.987-5.656,19.506-8.426
	c6.045-2.568,11.129-1.054,14.526,4.553c5.836,9.631,11.53,19.347,17.292,29.022c2.29,3.845,2.363,7.721,0.238,11.653
	c-3.153,5.832-6.221,11.711-9.491,17.478c-1.009,1.78-0.707,2.792,0.677,4.16c10.204,10.09,20.36,20.227,30.432,30.448
	c1.502,1.522,2.594,1.63,4.399,0.608c5.455-3.082,11.092-5.842,16.518-8.974c4.503-2.601,8.71-2.436,13.092,0.195
	c9.422,5.656,18.915,11.193,28.355,16.813c5.359,3.19,7.12,8.529,4.692,14.301c-2.817,6.694-5.813,13.318-8.562,20.041
	c-2.226,5.44-6.696,8.397-11.758,10.258c-4.445,1.635-9.251,2.297-13.897,3.387C141.859-13.389,141.808-13.629,141.757-13.87z
	 M142.151-19.203c2.14-0.246,4.639-0.266,6.994-0.856c6.66-1.668,12.28-4.52,14.713-11.816c1.859-5.58,4.562-10.879,6.892-16.302
	c1.784-4.153,1.115-6.366-2.753-8.668c-9.287-5.522-18.625-10.963-27.879-16.541c-2.461-1.484-4.636-1.51-7.136-0.127
	c-6.117,3.384-12.318,6.621-18.498,9.892c-3.598,1.902-5.071,1.688-7.973-1.204C95.645-75.665,84.791-86.516,73.946-97.375
	c-3.189-3.194-3.37-4.562-1.199-8.662c3.06-5.778,6.007-11.622,9.277-17.28c1.767-3.058,1.69-5.623-0.128-8.606
	c-5.482-8.994-10.769-18.107-16.144-27.166c-2.33-3.927-4.426-4.605-8.603-2.798c-6.084,2.63-12.081,5.494-18.273,7.838
	c-3.645,1.378-6.017,3.869-7.439,7.113c-1.401,3.196-2.504,6.675-2.903,10.127c-1.15,9.96,1.668,19.271,5.705,28.219
	c6.825,15.131,16.443,28.395,27.567,40.628C77.087-51.156,94.303-36.81,114.71-26.584C123.229-22.313,132.217-19.548,142.151-19.203
	z"/>
<path fill-rule="evenodd" clip-rule="evenodd" stroke="#FFFFFF" stroke-width="2" stroke-miterlimit="10" d="M93.441,21.765
	c3.319,0,6.638,0,9.957,0c0.367,0.094,0.729,0.246,1.103,0.272c13.726,1.006,26.382,5.262,37.781,12.945
	c18.724,12.623,30.288,30.069,34.479,52.308c0.569,3.025,0.88,6.1,1.312,9.151c0,3.319,0,6.638,0,9.957
	c-0.098,0.425-0.252,0.847-0.281,1.274c-0.918,12.268-4.438,23.757-10.825,34.251c-12.544,20.602-30.687,33.294-54.425,37.841
	c-3.021,0.576-6.097,0.877-9.144,1.309c-3.318,0-6.638,0-9.957,0c-0.368-0.095-0.73-0.246-1.102-0.272
	c-13.729-1.005-26.385-5.263-37.781-12.944c-18.726-12.624-30.29-30.068-34.48-52.309c-0.568-3.023-0.881-6.1-1.313-9.149
	c0-3.318,0-6.638,0-9.957c0.097-0.424,0.251-0.846,0.284-1.275c0.917-12.268,4.435-23.755,10.825-34.25
	c12.542-20.6,30.685-33.295,54.424-37.841C87.319,22.496,90.392,22.195,93.441,21.765z M98.345,29.732
	c-39.479,0.063-71.64,32.273-71.613,71.72c0.027,39.466,32.217,71.646,71.678,71.654c39.508,0.006,71.797-32.331,71.696-71.804
	C170.006,61.817,137.772,29.669,98.345,29.732z"/>
<path fill-rule="evenodd" clip-rule="evenodd" stroke="#FFFFFF" stroke-width="2" stroke-miterlimit="10" d="M135.683,101.565
	c0.028,2.942-1.417,5.179-3.475,7.068c-0.931,0.856-1.975,1.608-3.034,2.301c-13.401,8.79-26.804,17.574-40.238,26.312
	c-1.466,0.956-3.048,1.848-4.702,2.376c-4.975,1.591-8.604-0.765-9.409-5.983c-0.201-1.306-0.29-2.642-0.292-3.963
	c-0.018-18.857-0.016-37.715,0-56.573c0-1.212,0.094-2.433,0.256-3.635c0.811-5.985,5.502-8.459,10.896-5.75
	c1.084,0.545,2.144,1.154,3.157,1.821c13.486,8.859,26.979,17.709,40.419,26.638c1.676,1.113,3.306,2.484,4.502,4.077
	c1.105,1.472,1.598,3.401,2.359,5.129C135.978,101.444,135.828,101.506,135.683,101.565z M82.491,101.294
	c0,8.406-0.026,16.814,0.014,25.225c0.015,3.072,1.839,4.042,4.482,2.476c0.284-0.168,0.562-0.354,0.839-0.534
	c11.98-7.834,23.963-15.671,35.938-23.511c0.509-0.331,1.024-0.67,1.468-1.078c1.56-1.432,1.554-3.341-0.016-4.766
	c-0.486-0.444-1.051-0.808-1.604-1.171c-11.908-7.845-23.819-15.688-35.734-23.522c-0.598-0.394-1.197-0.818-1.855-1.087
	c-1.669-0.684-3.003,0.007-3.392,1.764c-0.153,0.692-0.136,1.428-0.138,2.144C82.485,85.253,82.488,93.273,82.491,101.294z"/>
<g>
	<path fill-rule="evenodd" clip-rule="evenodd" d="M343.666,171.146c-0.074-0.025-0.147-0.058-0.225-0.073
		c-0.455-0.099-0.848-0.309-1.183-0.631c-0.143-0.14-0.283-0.282-0.424-0.424c-7.104-7.104-14.212-14.206-21.31-21.318
		c-0.237-0.239-0.473-0.324-0.805-0.324c-21.466,0.007-42.932,0.002-64.398,0.012c-2.231,0.002-4.387-0.348-6.415-1.276
		c-5.017-2.292-8.08-6.158-9.168-11.572c-0.198-0.981-0.247-1.98-0.247-2.982c-0.002-8.182,0-16.363,0-24.546
		c0-0.157,0-0.315,0-0.498c-0.205,0.027-0.286,0.176-0.391,0.279c-2.395,2.392-4.787,4.784-7.181,7.177
		c-1.338,1.339-2.678,2.675-4.013,4.017c-0.583,0.586-1.275,0.847-2.1,0.758c-1.104-0.119-2.025-1.075-2.1-2.18
		c-0.012-0.174-0.008-0.348-0.008-0.52c-0.001-4.305-0.001-8.609-0.001-12.913c0-0.157,0-0.316,0-0.501
		c-0.13-0.015-0.231-0.036-0.331-0.037c-0.44-0.004-0.88-0.001-1.32-0.003c-5.699-0.016-10.555-4.07-11.58-9.676
		c-0.081-0.445-0.125-0.896-0.189-1.344c-0.014-0.09-0.049-0.178-0.073-0.268c0-14.101,0-28.2,0-42.301
		c0.06-0.366,0.121-0.732,0.179-1.099c0.589-3.774,2.516-6.657,5.793-8.614c1.862-1.112,3.903-1.587,6.07-1.586
		c16.419,0.006,32.838,0.002,49.256,0.002c5.852,0,11.701-0.003,17.552,0.005c0.665,0.001,1.338,0.019,1.992,0.124
		c3.676,0.594,6.495,2.493,8.428,5.675c1.112,1.83,1.634,3.837,1.638,5.976c0.005,2.718,0.001,5.437,0.002,8.157
		c0,0.153,0,0.308,0,0.49c0.242,0,0.427,0,0.611,0c15.965,0,31.931,0,47.896,0.001c0.935,0,1.866,0.073,2.784,0.247
		c3.86,0.732,7.035,2.629,9.47,5.711c1.878,2.375,3.01,5.07,3.236,8.115c0.007,0.076,0.041,0.15,0.063,0.226
		c0,20.23,0,40.46,0,60.691c-0.024,0.129-0.06,0.254-0.075,0.383c-0.039,0.331-0.05,0.665-0.109,0.992
		c-0.705,3.804-2.537,6.956-5.536,9.398c-2.756,2.246-5.929,3.415-9.493,3.479c-1.038,0.019-2.078,0.005-3.117,0.007
		c-0.144,0-0.285,0-0.472,0c0,0.217,0,0.387,0,0.558c0,6.474,0,12.949,0,19.425c0,0.133,0.003,0.268-0.001,0.4
		c-0.037,1.106-0.807,2.042-1.885,2.299c-0.09,0.022-0.175,0.055-0.264,0.082C344.039,171.146,343.853,171.146,343.666,171.146z
		 M341.426,162.747c0.029-0.012,0.061-0.022,0.09-0.034c0-0.155,0-0.311,0-0.467c0-5.346,0.023-10.688-0.014-16.034
		c-0.011-1.585,1.161-2.73,2.661-2.683c1.812,0.06,3.626,0.027,5.438,0.007c0.638-0.007,1.28-0.053,1.909-0.16
		c5.064-0.858,8.853-5.346,8.854-10.494c0.005-19.418,0.003-38.835-0.002-58.253c0-0.439-0.021-0.882-0.085-1.315
		c-0.558-3.662-2.473-6.381-5.731-8.135c-1.595-0.856-3.317-1.191-5.123-1.19c-16.979,0.009-33.958,0.009-50.937,0.011
		c-14.367,0.001-28.735-0.002-43.104,0.006c-0.676,0.001-1.361,0.036-2.028,0.141c-5.151,0.805-8.993,5.309-8.995,10.528
		c-0.004,19.298-0.004,38.596-0.002,57.895c0,0.438,0.015,0.878,0.059,1.314c0.289,2.869,1.549,5.238,3.729,7.104
		c2.025,1.734,4.398,2.558,7.06,2.556c21.79,0,43.58,0,65.37,0c0.227,0,0.452,0,0.679,0.002c0.615,0.007,1.144,0.227,1.595,0.641
		c0.147,0.135,0.286,0.279,0.428,0.419c5.937,5.938,11.873,11.875,17.812,17.812C341.197,162.527,341.313,162.635,341.426,162.747z
		 M296.236,59.127c0.008-0.167,0.02-0.285,0.02-0.401c0-2.758,0.008-5.517-0.002-8.275c-0.013-3.015-1.949-5.643-4.818-6.568
		c-0.769-0.248-1.56-0.331-2.363-0.331c-7.516,0-15.031,0-22.547,0c-14.658,0-29.316,0-43.975,0.003
		c-0.492,0-0.99,0.002-1.475,0.075c-3.67,0.544-5.939,3.719-5.935,6.834c0.019,13.792,0.007,27.584,0.013,41.376
		c0,0.384,0.03,0.773,0.088,1.153c0.467,3.07,3.211,5.553,6.314,5.722c0.346,0.019,0.693,0.027,1.039,0.028
		c1.105,0.004,2.211-0.003,3.317,0.005c0.278,0.002,0.564,0.015,0.831,0.083c1.129,0.287,1.803,1.347,1.798,2.359
		c-0.017,3.252-0.006,6.503-0.006,9.755c0,0.14,0,0.282,0,0.424c0.026,0.011,0.054,0.021,0.081,0.032
		c0.109-0.105,0.222-0.211,0.33-0.318c3.402-3.401,6.801-6.807,10.211-10.2c0.249-0.248,0.338-0.494,0.338-0.837
		c-0.008-8.422-0.012-16.843,0.003-25.265c0.001-0.862,0.062-1.736,0.211-2.583c0.896-5.079,3.65-8.843,8.168-11.3
		c2.278-1.238,4.747-1.772,7.34-1.771c13.472,0.004,26.944,0.002,40.417,0.001C295.819,59.127,296.006,59.127,296.236,59.127z"/>
</g>
</svg>
